<?xml version="1.0" standalone="no"?><svg xmlns="http://www.w3.org/2000/svg" viewBox="0 0 1440 320"><path fill="#88888" fill-opacity="1" d="M0,128L30,106.7C60,85,120,43,180,37.3C240,32,300,64,360,85.3C420,107,480,117,540,138.7C600,160,660,192,720,181.3C780,171,840,117,900,128C960,139,1020,213,1080,208C1140,203,1200,117,1260,101.3C1320,85,1380,139,1410,165.3L1440,192L1440,0L1410,0C1380,0,1320,0,1260,0C1200,0,1140,0,1080,0C1020,0,960,0,900,0C840,0,780,0,720,0C660,0,600,0,540,0C480,0,420,0,360,0C300,0,240,0,180,0C120,0,60,0,30,0L0,0Z"></path></svg>