<?xml version="1.0" standalone="no"?><svg xmlns="http://www.w3.org/2000/svg" viewBox="0 0 1440 320"><path fill="#88888" fill-opacity="1" d="M0,128L30,133.3C60,139,120,149,180,128C240,107,300,53,360,48C420,43,480,85,540,122.7C600,160,660,192,720,208C780,224,840,224,900,218.7C960,213,1020,203,1080,202.7C1140,203,1200,213,1260,229.3C1320,245,1380,267,1410,277.3L1440,288L1440,0L1410,0C1380,0,1320,0,1260,0C1200,0,1140,0,1080,0C1020,0,960,0,900,0C840,0,780,0,720,0C660,0,600,0,540,0C480,0,420,0,360,0C300,0,240,0,180,0C120,0,60,0,30,0L0,0Z"></path></svg>